<svg xmlns="http://www.w3.org/2000/svg" viewBox="0 0 413 128" fill="none">
  <rect x="3" y="3" width="122" height="122" rx="18" fill="#14090C" stroke="#E11D48" stroke-width="4"/>
  <g transform="translate(17.9 14.3) scale(.72)">
    <g stroke="#FF5C7A" stroke-width="11" stroke-linejoin="miter">
      <path d="M64 116V78"/>
      <path d="M64 78L28 22"/>
      <path d="M64 78L100 22"/>
    </g>
    <path d="M54 30L54 56L76 43Z" fill="#E11D48"/>
  </g>
  <path d="M163.94 82L163.94 63.70L148 37.20L157.54 37.20L168.22 55.57L168.35 55.57L179.04 37.20L188.58 37.20L172.64 63.70L172.64 82L163.94 82M192.61 82L186.02 75.34L186.02 56.78L192.61 50.13L210.91 50.13L217.50 56.78L217.50 75.34L210.91 82L192.61 82M196.70 74.96L206.82 74.96L209.06 72.72L209.06 59.41L206.82 57.17L196.70 57.17L194.46 59.41L194.46 72.72L196.70 74.96M230.94 82L224.22 75.28L224.22 50.13L232.67 50.13L232.67 72.66L234.85 74.83L239.97 74.83L246.24 68.56L246.24 50.13L254.69 50.13L254.69 82L246.88 82L246.88 76.56L241.38 82" fill="#F5EBED"/>
  <path d="M262.69 82L262.69 37.20L294.43 37.20L294.43 44.56L271.39 44.56L271.39 56.98L291.36 56.98L291.36 64.34L271.39 64.34L271.39 82L262.69 82M302.56 82L296.67 76.11L296.67 68.82L302.56 62.93L318.75 62.93L318.75 58.90L316.77 56.91L307.17 56.91L305.25 58.90L305.25 60.69L296.93 60.69L296.93 57.04L303.78 50.13L320.22 50.13L327.07 57.04L327.07 82L319.46 82L319.46 77.46L314.72 82L302.56 82M306.59 75.47L314.14 75.47L318.75 71.06L318.75 68.94L306.72 68.94L304.99 70.67L304.99 73.87L306.59 75.47M334.43 82L334.43 50.13L342.24 50.13L342.24 55.44L347.36 50.13L356.45 50.13L356.45 57.30L349.09 57.30L342.88 63.70L342.88 82L334.43 82M360.61 82L360.61 50.13L368.42 50.13L368.42 55.38L373.60 50.13L381.66 50.13L386.02 54.54L390.37 50.13L401.50 50.13L408.35 57.04L408.35 82L399.90 82L399.90 59.54L397.73 57.30L392.35 57.30L388.96 60.69L388.96 82L380.77 82L380.77 59.41L378.72 57.30L374.88 57.30L369.06 63.18L369.06 82" fill="#FF5C7A"/>
</svg>
